<svg width="17" height="24" viewBox="0 0 17 24" fill="none" xmlns="http://www.w3.org/2000/svg">
<path fill-rule="evenodd" clip-rule="evenodd" d="M0.210144 4.57971C0.210144 2.05041 2.26055 0 4.78985 0H7.63044H9.36956H12.2101C14.7394 0 16.7899 2.05041 16.7899 4.57971C16.7899 6.10585 16.0434 7.45764 14.8956 8.28986C16.0434 9.12207 16.7899 10.4739 16.7899 12C16.7899 14.5293 14.7394 16.5797 12.2101 16.5797C11.1371 16.5797 10.1502 16.2107 9.36957 15.5926V16.5797V19.4203C9.36957 21.9496 7.31916 24 4.78986 24C2.26055 24 0.210144 21.9496 0.210144 19.4203C0.210144 17.8941 0.956642 16.5424 2.10442 15.7101C0.956642 14.8779 0.210144 13.5261 0.210144 12C0.210144 10.4739 0.956642 9.12207 2.10442 8.28986C0.956642 7.45764 0.210144 6.10585 0.210144 4.57971ZM4.78986 14.8406H7.63043L7.63044 9.15942H4.78985C3.22105 9.15942 1.94928 10.4312 1.94928 12C1.94928 13.5688 3.22105 14.8406 4.78986 14.8406ZM7.63043 16.5797H4.78986C3.22105 16.5797 1.94928 17.8515 1.94928 19.4203C1.94928 20.9891 3.22105 22.2609 4.78986 22.2609C6.35866 22.2609 7.63043 20.9891 7.63043 19.4203V16.5797ZM12.2101 14.8406C10.6413 14.8406 9.36957 13.5688 9.36957 12C9.36957 10.4312 10.6413 9.15942 12.2101 9.15942C13.779 9.15942 15.0507 10.4312 15.0507 12C15.0507 13.5688 13.779 14.8406 12.2101 14.8406ZM7.63043 7.42029H4.78985C3.22105 7.42029 1.94927 6.14852 1.94927 4.57971C1.94927 3.0109 3.22105 1.73913 4.78985 1.73913H7.63043V7.42029ZM12.2101 7.42029C13.779 7.42029 15.0507 6.14852 15.0507 4.57971C15.0507 3.0109 13.779 1.73913 12.2101 1.73913H9.36957V7.42029H12.2101Z" fill="#1E293B"/>
</svg>