<svg viewBox="0 0 32 32" fill="currentColor" xmlns="http://www.w3.org/2000/svg">
<path d="M16 0C24.84 0 32 7.16 32 16C32 19.35 30.95 22.62 28.99 25.34C27.03 28.06 24.27 30.1 21.1 31.18C20.3 31.34 20 30.84 20 30.42C20 29.88 20.02 28.16 20.02 26.02C20.02 24.52 19.52 23.56 18.94 23.06C22.5 22.66 26.24 21.3 26.24 15.16C26.24 13.4 25.62 11.98 24.6 10.86C24.76 10.46 25.32 8.82 24.44 6.62C24.44 6.62 23.1 6.18 20.04 8.26C18.76 7.9 17.4 7.72 16.04 7.72C14.68 7.72 13.32 7.9 12.04 8.26C8.98 6.2 7.64 6.62 7.64 6.62C6.76 8.82 7.32 10.46 7.48 10.86C6.46 11.98 5.84 13.42 5.84 15.16C5.84 21.28 9.56 22.66 13.12 23.06C12.66 23.46 12.24 24.16 12.1 25.2C11.18 25.62 8.88 26.3 7.44 23.88C7.14 23.4 6.24 22.22 4.98 22.24C3.64 22.26 4.44 23 5 23.3C5.68 23.68 6.46 25.1 6.64 25.56C6.96 26.46 8 28.18 12.02 27.44C12.02 28.78 12.04 30.04 12.04 30.42C12.04 30.84 11.74 31.32 10.94 31.18C7.75 30.12 4.98 28.08 3.02 25.36C1.05 22.63 0 19.36 0 16C0 7.16 7.16 0 16 0Z"/>
</svg>