<svg viewBox="0 0 21 23" xmlns="http://www.w3.org/2000/svg">
<path fill-rule="evenodd" clip-rule="evenodd" d="M12.5 11.4499C12.5 12.5545 11.6046 13.4499 10.5 13.4499C9.39543 13.4499 8.5 12.5545 8.5 11.4499C8.5 10.3454 9.39543 9.44994 10.5 9.44994C11.6046 9.44994 12.5 10.3454 12.5 11.4499Z"/>
<path fill-rule="evenodd" clip-rule="evenodd" d="M10.5 3.70111C10.3372 3.57034 10.1746 3.4464 10.0124 3.32956C8.37451 2.14947 6.60269 1.5757 5.25 2.35668C3.89731 3.13765 3.50829 4.95898 3.71132 6.9675C3.73142 7.16636 3.75744 7.36917 3.78931 7.57553C3.59467 7.6511 3.40602 7.72998 3.22375 7.812C1.38281 8.64042 0 9.88799 0 11.4499C0 13.0119 1.38281 14.2595 3.22375 15.0879C3.40602 15.1699 3.59467 15.2488 3.78931 15.3244C3.75744 15.5307 3.73142 15.7335 3.71132 15.9324C3.50829 17.9409 3.89731 19.7622 5.25 20.5432C6.60269 21.3242 8.37451 20.7504 10.0124 19.5703C10.1746 19.4535 10.3372 19.3296 10.5 19.1988C10.6628 19.3296 10.8254 19.4535 10.9876 19.5703C12.6255 20.7504 14.3973 21.3242 15.75 20.5432C17.1027 19.7622 17.4917 17.9409 17.2887 15.9324C17.2686 15.7335 17.2426 15.5307 17.2107 15.3244C17.4053 15.2488 17.594 15.1699 17.7763 15.0879C19.6172 14.2595 21 13.0119 21 11.4499C21 9.88799 19.6172 8.64042 17.7763 7.812C17.594 7.72998 17.4053 7.6511 17.2107 7.57552C17.2426 7.36917 17.2686 7.16636 17.2887 6.9675C17.4917 4.95898 17.1027 3.13765 15.75 2.35668C14.3973 1.5757 12.6255 2.14947 10.9876 3.32956C10.8254 3.4464 10.6628 3.57034 10.5 3.70111ZM15.25 3.2227C16.0496 3.68437 16.4899 4.92671 16.2937 6.86692C16.2812 6.99061 16.2662 7.11626 16.2486 7.24376C15.3476 6.96901 14.3502 6.75804 13.2869 6.6229C12.6382 5.76958 11.9568 5.01133 11.2684 4.36842C11.37 4.28944 11.4713 4.21358 11.5721 4.1409C13.1544 3.00094 14.4504 2.76104 15.25 3.2227ZM10.5 5.01981C10.97 5.45136 11.4411 5.94468 11.9028 6.49291C11.4435 6.46455 10.9752 6.44994 10.5 6.44994C10.0248 6.44994 9.55645 6.46454 9.09717 6.49291C9.55885 5.94468 10.03 5.45136 10.5 5.01981ZM7.7131 6.6229C6.64975 6.75805 5.65239 6.96901 4.75139 7.24376C4.7338 7.11626 4.71875 6.99061 4.70625 6.86692C4.51012 4.92671 4.95037 3.68437 5.75 3.2227C6.54963 2.76104 7.84564 3.00094 9.42786 4.1409C9.52872 4.21358 9.63002 4.28944 9.73164 4.36842C9.0432 5.01133 8.36182 5.76958 7.7131 6.6229ZM6.90849 7.75654C6.65429 8.14011 6.40748 8.53839 6.16987 8.94995C5.93226 9.3615 5.71075 9.77438 5.50567 10.1863C5.26172 9.51237 5.07005 8.85771 4.93134 8.23488C5.54008 8.04359 6.20287 7.88225 6.90849 7.75654ZM6.01545 11.4499C6.30878 10.7901 6.64912 10.1199 7.0359 9.44995C7.42267 8.78004 7.83298 8.15015 8.25773 7.56621C8.9758 7.49034 9.72646 7.44994 10.5 7.44994C11.2735 7.44994 12.0242 7.49034 12.7423 7.56621C13.167 8.15015 13.5773 8.78004 13.9641 9.44995C14.3509 10.1199 14.6912 10.7901 14.9845 11.4499C14.6912 12.1098 14.3509 12.78 13.9641 13.4499C13.5773 14.1199 13.167 14.7497 12.7423 15.3337C12.0242 15.4095 11.2735 15.4499 10.5 15.4499C9.72645 15.4499 8.9758 15.4095 8.25772 15.3337C7.83297 14.7497 7.42267 14.1199 7.0359 13.4499C6.64912 12.78 6.30878 12.1098 6.01545 11.4499ZM4.92621 11.4499C4.51157 12.4384 4.1956 13.4076 3.98304 14.3253C3.86383 14.2768 3.74748 14.227 3.63411 14.176C1.85577 13.3757 1 12.3733 1 11.4499C1 10.5266 1.85577 9.52418 3.63411 8.72392C3.74748 8.67291 3.86382 8.62311 3.98304 8.5746C4.19559 9.49226 4.51157 10.4615 4.92621 11.4499ZM4.93134 14.665C5.07005 14.0422 5.26172 13.3875 5.50566 12.7136C5.71074 13.1255 5.93226 13.5384 6.16987 13.9499C6.40748 14.3615 6.65429 14.7598 6.90849 15.1433C6.20287 15.0176 5.54008 14.8563 4.93134 14.665ZM4.75139 15.6561C5.65239 15.9309 6.64974 16.1418 7.7131 16.277C8.36182 17.1303 9.0432 17.8886 9.73164 18.5315C9.63002 18.6105 9.52872 18.6863 9.42786 18.759C7.84564 19.899 6.54963 20.1389 5.75 19.6772C4.95037 19.2155 4.51012 17.9732 4.70625 16.033C4.71876 15.9093 4.73381 15.7836 4.75139 15.6561ZM11.2684 18.5315C11.9568 17.8886 12.6382 17.1303 13.2869 16.277C14.3503 16.1418 15.3476 15.9309 16.2486 15.6561C16.2662 15.7836 16.2812 15.9093 16.2937 16.033C16.4899 17.9732 16.0496 19.2155 15.25 19.6772C14.4504 20.1389 13.1544 19.899 11.5721 18.759C11.4713 18.6863 11.37 18.6105 11.2684 18.5315ZM11.9028 16.407C11.4412 16.9552 10.97 17.4485 10.5 17.8801C10.03 17.4485 9.55884 16.9552 9.09716 16.407C9.55645 16.4353 10.0248 16.4499 10.5 16.4499C10.9752 16.4499 11.4435 16.4353 11.9028 16.407ZM14.0915 15.1433C14.3457 14.7598 14.5925 14.3615 14.8301 13.9499C15.0677 13.5384 15.2892 13.1255 15.4943 12.7136C15.7383 13.3875 15.9299 14.0422 16.0687 14.665C15.4599 14.8563 14.7971 15.0176 14.0915 15.1433ZM16.0738 11.45C16.4884 10.4615 16.8044 9.49226 17.017 8.57459C17.1362 8.62311 17.2525 8.67291 17.3659 8.72392C19.1442 9.52418 20 10.5266 20 11.4499C20 12.3733 19.1442 13.3757 17.3659 14.176C17.2525 14.227 17.1362 14.2768 17.017 14.3253C16.8044 13.4076 16.4884 12.4384 16.0738 11.45ZM16.0687 8.23487C15.9299 8.85771 15.7383 9.51238 15.4943 10.1863C15.2892 9.77439 15.0677 9.3615 14.8301 8.94995C14.5925 8.53839 14.3457 8.14011 14.0915 7.75654C14.7971 7.88225 15.4599 8.04359 16.0687 8.23487Z"/>
</svg>