<svg viewBox="0 0 23 22" fill="currentColor" xmlns="http://www.w3.org/2000/svg">
<path d="M18.88 8.11999C18.31 8.11999 17.85 7.66999 17.85 7.10999C17.85 5.98999 16.93 5.07999 15.79 5.07999C15.22 5.07999 14.76 4.62999 14.76 4.06999C14.76 3.50999 15.22 3.04999 15.79 3.04999C16.93 3.04999 17.85 2.13999 17.85 1.01999C17.85 0.459994 18.31 0.00999451 18.88 0.00999451C19.45 0.00999451 19.91 0.459994 19.91 1.01999C19.91 2.13999 20.83 3.04999 21.97 3.04999C22.54 3.04999 23 3.49999 23 4.06999C23 4.63999 22.54 5.07999 21.97 5.07999C20.83 5.07999 19.91 5.98999 19.91 7.10999C19.91 7.66999 19.45 8.11999 18.88 8.11999ZM9.25 21.65C8.49 21.65 7.87 21.04 7.87 20.3C7.87 17.31 5.41 14.89 2.37 14.89C1.61 14.89 0.989998 14.29 0.989998 13.54C0.989998 12.79 1.61 12.19 2.37 12.19C5.41 12.19 7.87 9.76999 7.87 6.77999C7.87 6.02999 8.49 5.42999 9.25 5.42999C10.01 5.42999 10.63 6.02999 10.63 6.77999C10.63 9.76999 13.09 12.19 16.13 12.19C16.89 12.19 17.51 12.8 17.51 13.54C17.51 14.28 16.89 14.89 16.13 14.89C13.09 14.89 10.63 17.31 10.63 20.3C10.63 21.05 10.01 21.65 9.25 21.65Z"/>
</svg>