<svg xmlns="http://www.w3.org/2000/svg" width="118" height="133" viewBox="0 0 118 133" fill="none">
  <mask id="path-2-outside-1_1_444" maskUnits="userSpaceOnUse" x="8" y="8.97067" width="102" height="124" fill="black">
    <rect fill="white" x="8" y="8.97067" width="102" height="124"/>
    <path fill-rule="evenodd" clip-rule="evenodd" d="M12 109.971C10.3431 109.971 9 108.628 9 106.971V12.9707C9 11.3138 10.3431 9.97067 12 9.97067H106C107.657 9.97067 109 11.3138 109 12.9707V41.7216C109 43.9815 106.528 45.4879 104.294 45.1451C103.546 45.0302 102.78 44.9707 102 44.9707C93.7157 44.9707 87 51.6864 87 59.9707C87 68.2549 93.7157 74.9707 102 74.9707C102.78 74.9707 103.546 74.9111 104.294 74.7963C106.528 74.4534 109 75.9598 109 78.2197V106.971C109 108.628 107.657 109.971 106 109.971H77.2491C74.9892 109.971 73.4827 112.442 73.8256 114.676C73.9404 115.424 74 116.19 74 116.971C74 125.255 67.2843 131.971 59 131.971C50.7157 131.971 44 125.255 44 116.971C44 116.19 44.0596 115.424 44.1744 114.676C44.5173 112.442 43.0108 109.971 40.751 109.971H12Z"/>
  </mask>
  <path fill-rule="evenodd" clip-rule="evenodd" d="M12 109.971C10.3431 109.971 9 108.628 9 106.971V12.9707C9 11.3138 10.3431 9.97067 12 9.97067H106C107.657 9.97067 109 11.3138 109 12.9707V41.7216C109 43.9815 106.528 45.4879 104.294 45.1451C103.546 45.0302 102.78 44.9707 102 44.9707C93.7157 44.9707 87 51.6864 87 59.9707C87 68.2549 93.7157 74.9707 102 74.9707C102.78 74.9707 103.546 74.9111 104.294 74.7963C106.528 74.4534 109 75.9598 109 78.2197V106.971C109 108.628 107.657 109.971 106 109.971H77.2491C74.9892 109.971 73.4827 112.442 73.8256 114.676C73.9404 115.424 74 116.19 74 116.971C74 125.255 67.2843 131.971 59 131.971C50.7157 131.971 44 125.255 44 116.971C44 116.19 44.0596 115.424 44.1744 114.676C44.5173 112.442 43.0108 109.971 40.751 109.971H12Z" fill="white"/>
  <path d="M8 12.9707V106.971H10V12.9707H8ZM106 8.97067H12V10.9707H106V8.97067ZM110 41.7216V12.9707H108V41.7216H110ZM102 45.9707C102.729 45.9707 103.445 46.0263 104.143 46.1335L104.446 44.1566C103.648 44.0341 102.831 43.9707 102 43.9707V45.9707ZM88 59.9707C88 52.2387 94.268 45.9707 102 45.9707V43.9707C93.1634 43.9707 86 51.1341 86 59.9707H88ZM102 73.9707C94.268 73.9707 88 67.7027 88 59.9707H86C86 68.8072 93.1634 75.9707 102 75.9707V73.9707ZM104.143 73.8079C103.445 73.915 102.729 73.9707 102 73.9707V75.9707C102.831 75.9707 103.648 75.9072 104.446 75.7847L104.143 73.8079ZM110 106.971V78.2197H108V106.971H110ZM77.2491 110.971H106V108.971H77.2491V110.971ZM75 116.971C75 116.14 74.9365 115.323 74.814 114.524L72.8372 114.828C72.9443 115.526 73 116.241 73 116.971H75ZM59 132.971C67.8366 132.971 75 125.807 75 116.971H73C73 124.703 66.732 130.971 59 130.971V132.971ZM43 116.971C43 125.807 50.1634 132.971 59 132.971V130.971C51.268 130.971 45 124.703 45 116.971H43ZM43.186 114.524C43.0635 115.323 43 116.14 43 116.971H45C45 116.241 45.0557 115.526 45.1628 114.828L43.186 114.524ZM12 110.971H40.751V108.971H12V110.971ZM77.2491 108.971C75.7222 108.971 74.498 109.812 73.737 110.92C72.9817 112.019 72.6258 113.451 72.8372 114.828L74.814 114.524C74.6825 113.668 74.9084 112.747 75.3856 112.052C75.857 111.366 76.516 110.971 77.2491 110.971V108.971ZM108 106.971C108 108.075 107.105 108.971 106 108.971V110.971C108.209 110.971 110 109.18 110 106.971H108ZM108 41.7216C108 42.4547 107.605 43.1136 106.919 43.5851C106.224 44.0623 105.303 44.2882 104.446 44.1566L104.143 46.1335C105.52 46.3448 106.951 45.9889 108.051 45.2337C109.159 44.4727 110 43.2485 110 41.7216H108ZM104.446 75.7847C105.303 75.6532 106.224 75.8791 106.919 76.3563C107.605 76.8277 108 77.4867 108 78.2197H110C110 76.6929 109.159 75.4687 108.051 74.7077C106.951 73.9524 105.52 73.5965 104.143 73.8079L104.446 75.7847ZM45.1628 114.828C45.3742 113.451 45.0183 112.019 44.263 110.92C43.502 109.812 42.2778 108.971 40.751 108.971V110.971C41.484 110.971 42.143 111.366 42.6144 112.052C43.0916 112.747 43.3175 113.668 43.186 114.524L45.1628 114.828ZM106 10.9707C107.105 10.9707 108 11.8661 108 12.9707H110C110 10.7615 108.209 8.97067 106 8.97067V10.9707ZM8 106.971C8 109.18 9.79086 110.971 12 110.971V108.971C10.8954 108.971 10 108.075 10 106.971H8ZM10 12.9707C10 11.8661 10.8954 10.9707 12 10.9707V8.97067C9.79086 8.97067 8 10.7615 8 12.9707H10Z" fill="black" mask="url(#path-2-outside-1_1_444)"/>
</svg>