<svg xmlns="http://www.w3.org/2000/svg" width="132" height="119" viewBox="0 0 132 119" fill="none">
  <mask id="path-2-outside-1_1_456" maskUnits="userSpaceOnUse" x="8" y="8.97069" width="124" height="102" fill="black">
    <rect fill="white" x="8" y="8.97069" width="124" height="102"/>
    <path fill-rule="evenodd" clip-rule="evenodd" d="M44.1744 14.6762C44.5173 12.4425 43.0108 9.97069 40.7509 9.97069H12C10.3431 9.97069 9 11.3138 9 12.9707V106.971C9 108.628 10.3431 109.971 12 109.971H106C107.657 109.971 109 108.628 109 106.971V78.2197C109 75.9598 111.472 74.4534 113.706 74.7963C114.454 74.9111 115.22 74.9707 116 74.9707C124.284 74.9707 131 68.255 131 59.9707C131 51.6864 124.284 44.9707 116 44.9707C115.22 44.9707 114.454 45.0303 113.706 45.1451C111.472 45.4879 109 43.9815 109 41.7216V12.9707C109 11.3138 107.657 9.97069 106 9.97069H77.2491C74.9892 9.97069 73.4827 12.4425 73.8256 14.6762C73.9404 15.4243 74 16.1905 74 16.9707C74 25.255 67.2843 31.9707 59 31.9707C50.7157 31.9707 44 25.255 44 16.9707C44 16.1905 44.0596 15.4243 44.1744 14.6762Z"/>
  </mask>
  <path fill-rule="evenodd" clip-rule="evenodd" d="M44.1744 14.6762C44.5173 12.4425 43.0108 9.97069 40.7509 9.97069H12C10.3431 9.97069 9 11.3138 9 12.9707V106.971C9 108.628 10.3431 109.971 12 109.971H106C107.657 109.971 109 108.628 109 106.971V78.2197C109 75.9598 111.472 74.4534 113.706 74.7963C114.454 74.9111 115.22 74.9707 116 74.9707C124.284 74.9707 131 68.255 131 59.9707C131 51.6864 124.284 44.9707 116 44.9707C115.22 44.9707 114.454 45.0303 113.706 45.1451C111.472 45.4879 109 43.9815 109 41.7216V12.9707C109 11.3138 107.657 9.97069 106 9.97069H77.2491C74.9892 9.97069 73.4827 12.4425 73.8256 14.6762C73.9404 15.4243 74 16.1905 74 16.9707C74 25.255 67.2843 31.9707 59 31.9707C50.7157 31.9707 44 25.255 44 16.9707C44 16.1905 44.0596 15.4243 44.1744 14.6762Z" fill="white"/>
  <path d="M59 31.9707V32.9707V31.9707ZM73.8256 14.6762L74.814 14.5245L73.8256 14.6762ZM113.706 45.1451L113.554 44.1567L113.706 45.1451ZM40.7509 8.97069H12V10.9707H40.7509V8.97069ZM8 12.9707V106.971H10V12.9707H8ZM12 110.971H106V108.971H12V110.971ZM110 106.971V78.2197H108V106.971H110ZM113.554 75.7847C114.352 75.9072 115.169 75.9707 116 75.9707V73.9707C115.271 73.9707 114.555 73.915 113.857 73.8079L113.554 75.7847ZM116 75.9707C124.837 75.9707 132 68.8072 132 59.9707H130C130 67.7027 123.732 73.9707 116 73.9707V75.9707ZM132 59.9707C132 51.1341 124.837 43.9707 116 43.9707V45.9707C123.732 45.9707 130 52.2387 130 59.9707H132ZM116 43.9707C115.169 43.9707 114.352 44.0341 113.554 44.1567L113.857 46.1335C114.555 46.0264 115.271 45.9707 116 45.9707V43.9707ZM110 41.7216V12.9707H108V41.7216H110ZM106 8.97069H77.2491V10.9707H106V8.97069ZM72.8372 14.8279C72.9443 15.526 73 16.2415 73 16.9707H75C75 16.1396 74.9365 15.3226 74.814 14.5245L72.8372 14.8279ZM73 16.9707C73 24.7027 66.732 30.9707 59 30.9707V32.9707C67.8366 32.9707 75 25.8072 75 16.9707H73ZM59 30.9707C51.268 30.9707 45 24.7027 45 16.9707H43C43 25.8072 50.1634 32.9707 59 32.9707V30.9707ZM45 16.9707C45 16.2415 45.0557 15.5259 45.1628 14.8279L43.186 14.5245C43.0635 15.3226 43 16.1395 43 16.9707H45ZM77.2491 8.97069C75.7222 8.97069 74.498 9.8117 73.737 10.9196C72.9818 12.0192 72.6258 13.451 72.8372 14.8279L74.814 14.5245C74.6825 13.6677 74.9084 12.7467 75.3856 12.052C75.8571 11.3656 76.516 10.9707 77.2491 10.9707V8.97069ZM110 12.9707C110 10.7615 108.209 8.97069 106 8.97069V10.9707C107.105 10.9707 108 11.8661 108 12.9707H110ZM113.554 44.1567C112.697 44.2882 111.776 44.0623 111.081 43.5851C110.395 43.1136 110 42.4547 110 41.7216H108C108 43.2485 108.841 44.4727 109.949 45.2337C111.049 45.9889 112.48 46.3449 113.857 46.1335L113.554 44.1567ZM110 78.2197C110 77.4867 110.395 76.8277 111.081 76.3563C111.776 75.8791 112.697 75.6532 113.554 75.7847L113.857 73.8079C112.48 73.5965 111.049 73.9524 109.949 74.7077C108.841 75.4687 108 76.6929 108 78.2197H110ZM106 110.971C108.209 110.971 110 109.18 110 106.971H108C108 108.075 107.105 108.971 106 108.971V110.971ZM8 106.971C8 109.18 9.79086 110.971 12 110.971V108.971C10.8954 108.971 10 108.075 10 106.971H8ZM12 8.97069C9.79086 8.97069 8 10.7615 8 12.9707H10C10 11.8661 10.8954 10.9707 12 10.9707V8.97069ZM40.7509 10.9707C41.484 10.9707 42.143 11.3656 42.6144 12.052C43.0916 12.7467 43.3175 13.6677 43.186 14.5245L45.1628 14.8279C45.3742 13.451 45.0183 12.0192 44.263 10.9196C43.502 9.81169 42.2778 8.97069 40.7509 8.97069V10.9707Z" fill="black" mask="url(#path-2-outside-1_1_456)"/>
</svg>