<svg xmlns="http://www.w3.org/2000/svg" width="118" height="133" viewBox="0 0 118 133" fill="none">
  <mask id="path-2-outside-1_1_468" maskUnits="userSpaceOnUse" x="8" y="0.970688" width="102" height="124" fill="black">
    <rect fill="white" x="8" y="0.970688" width="102" height="124"/>
    <path fill-rule="evenodd" clip-rule="evenodd" d="M44 16.9707C44 17.7509 44.0596 18.5171 44.1744 19.2652C44.5173 21.4989 43.0108 23.9707 40.7509 23.9707H12C10.3431 23.9707 9 25.3138 9 26.9707V55.7216C9 57.9815 11.4718 59.4879 13.7055 59.1451C14.4536 59.0303 15.2198 58.9707 16 58.9707C24.2843 58.9707 31 65.6864 31 73.9707C31 82.255 24.2843 88.9707 16 88.9707C15.2198 88.9707 14.4536 88.9111 13.7055 88.7963C11.4718 88.4534 9 89.9599 9 92.2197V120.971C9 122.628 10.3431 123.971 12 123.971H106C107.657 123.971 109 122.628 109 120.971V26.9707C109 25.3138 107.657 23.9707 106 23.9707H77.2491C74.9892 23.9707 73.4827 21.4989 73.8256 19.2652C73.9404 18.5171 74 17.7509 74 16.9707C74 8.68642 67.2843 1.97069 59 1.97069C50.7157 1.97069 44 8.68642 44 16.9707Z"/>
  </mask>
  <path fill-rule="evenodd" clip-rule="evenodd" d="M44 16.9707C44 17.7509 44.0596 18.5171 44.1744 19.2652C44.5173 21.4989 43.0108 23.9707 40.7509 23.9707H12C10.3431 23.9707 9 25.3138 9 26.9707V55.7216C9 57.9815 11.4718 59.4879 13.7055 59.1451C14.4536 59.0303 15.2198 58.9707 16 58.9707C24.2843 58.9707 31 65.6864 31 73.9707C31 82.255 24.2843 88.9707 16 88.9707C15.2198 88.9707 14.4536 88.9111 13.7055 88.7963C11.4718 88.4534 9 89.9599 9 92.2197V120.971C9 122.628 10.3431 123.971 12 123.971H106C107.657 123.971 109 122.628 109 120.971V26.9707C109 25.3138 107.657 23.9707 106 23.9707H77.2491C74.9892 23.9707 73.4827 21.4989 73.8256 19.2652C73.9404 18.5171 74 17.7509 74 16.9707C74 8.68642 67.2843 1.97069 59 1.97069C50.7157 1.97069 44 8.68642 44 16.9707Z" fill="white"/>
  <path d="M13.7055 59.1451L13.5538 58.1567L13.7055 59.1451ZM73.8256 19.2652L72.8372 19.1134L73.8256 19.2652ZM45.1628 19.1134C45.0557 18.4154 45 17.6999 45 16.9707H43C43 17.8018 43.0635 18.6188 43.186 19.4169L45.1628 19.1134ZM12 24.9707H40.7509V22.9707H12V24.9707ZM10 55.7216V26.9707H8V55.7216H10ZM13.8572 60.1335C14.5553 60.0264 15.2708 59.9707 16 59.9707V57.9707C15.1689 57.9707 14.3519 58.0341 13.5538 58.1567L13.8572 60.1335ZM16 59.9707C23.732 59.9707 30 66.2387 30 73.9707H32C32 65.1341 24.8366 57.9707 16 57.9707V59.9707ZM30 73.9707C30 81.7027 23.732 87.9707 16 87.9707V89.9707C24.8366 89.9707 32 82.8072 32 73.9707H30ZM16 87.9707C15.2708 87.9707 14.5553 87.915 13.8572 87.8079L13.5538 89.7847C14.3519 89.9072 15.1689 89.9707 16 89.9707V87.9707ZM10 120.971V92.2197H8V120.971H10ZM106 122.971H12V124.971H106V122.971ZM108 26.9707V120.971H110V26.9707H108ZM77.2491 24.9707H106V22.9707H77.2491V24.9707ZM73 16.9707C73 17.6999 72.9443 18.4154 72.8372 19.1134L74.814 19.4169C74.9365 18.6188 75 17.8018 75 16.9707H73ZM59 2.97069C66.732 2.97069 73 9.2387 73 16.9707H75C75 8.13413 67.8366 0.970688 59 0.970688V2.97069ZM45 16.9707C45 9.2387 51.268 2.97069 59 2.97069V0.970688C50.1634 0.970688 43 8.13413 43 16.9707H45ZM110 26.9707C110 24.7615 108.209 22.9707 106 22.9707V24.9707C107.105 24.9707 108 25.8661 108 26.9707H110ZM106 124.971C108.209 124.971 110 123.18 110 120.971H108C108 122.075 107.105 122.971 106 122.971V124.971ZM8 120.971C8 123.18 9.79086 124.971 12 124.971V122.971C10.8954 122.971 10 122.075 10 120.971H8ZM8 55.7216C8 57.2485 8.84101 58.4727 9.94894 59.2337C11.0485 59.9889 12.4803 60.3449 13.8572 60.1335L13.5538 58.1567C12.697 58.2882 11.776 58.0623 11.0813 57.5851C10.3949 57.1136 10 56.4547 10 55.7216H8ZM13.8572 87.8079C12.4803 87.5965 11.0485 87.9524 9.94894 88.7077C8.84101 89.4687 8 90.6929 8 92.2197H10C10 91.4867 10.3949 90.8277 11.0813 90.3563C11.776 89.8791 12.697 89.6532 13.5538 89.7847L13.8572 87.8079ZM12 22.9707C9.79086 22.9707 8 24.7615 8 26.9707H10C10 25.8661 10.8954 24.9707 12 24.9707V22.9707ZM77.2491 22.9707C76.516 22.9707 75.857 22.5758 75.3856 21.8894C74.9084 21.1947 74.6825 20.2737 74.814 19.4169L72.8372 19.1134C72.6258 20.4904 72.9817 21.9222 73.737 23.0217C74.498 24.1297 75.7222 24.9707 77.2491 24.9707V22.9707ZM43.186 19.4169C43.3175 20.2737 43.0916 21.1947 42.6144 21.8894C42.1429 22.5758 41.484 22.9707 40.7509 22.9707V24.9707C42.2778 24.9707 43.502 24.1297 44.263 23.0217C45.0182 21.9222 45.3742 20.4904 45.1628 19.1134L43.186 19.4169Z" fill="black" mask="url(#path-2-outside-1_1_468)"/>
</svg>