<svg xmlns="http://www.w3.org/2000/svg" width="167" height="167" viewBox="0 0 167 167" fill="none">
  <mask id="path-2-outside-1_1_480" maskUnits="userSpaceOnUse" x="-5.17663" y="11.2851" width="160.508" height="158.297" fill="black">
    <rect fill="white" x="-5.17663" y="11.2851" width="160.508" height="158.297"/>
    <path fill-rule="evenodd" clip-rule="evenodd" d="M80.6316 151.795C79.3798 152.88 77.4851 152.745 76.3997 151.493L57.5653 129.77C56.0849 128.063 53.2305 128.544 51.7674 130.266C51.2774 130.843 50.7375 131.39 50.148 131.901C43.8888 137.328 34.4153 136.653 28.9884 130.394C23.5615 124.135 24.2362 114.661 30.4954 109.235C31.0848 108.723 31.7028 108.267 32.3432 107.863C34.2555 106.659 35.1363 103.902 33.6558 102.194L14.8214 80.4712C13.736 79.2194 13.871 77.3247 15.1228 76.2393L86.1448 14.661C87.3966 13.5757 89.2913 13.7106 90.3767 14.9624L151.955 85.9844C153.04 87.2362 152.905 89.1309 151.654 90.2163L129.931 109.051C128.223 110.531 125.466 109.65 124.262 107.738C123.858 107.098 123.401 106.48 122.89 105.89C117.463 99.631 107.99 98.9563 101.731 104.383C95.4715 109.81 94.7968 119.284 100.224 125.543C100.735 126.132 101.282 126.672 101.859 127.162C103.581 128.625 104.062 131.48 102.354 132.96L80.6316 151.795Z"/>
  </mask>
  <path fill-rule="evenodd" clip-rule="evenodd" d="M80.6316 151.795C79.3798 152.88 77.4851 152.745 76.3997 151.493L57.5653 129.77C56.0849 128.063 53.2305 128.544 51.7674 130.266C51.2774 130.843 50.7375 131.39 50.148 131.901C43.8888 137.328 34.4153 136.653 28.9884 130.394C23.5615 124.135 24.2362 114.661 30.4954 109.235C31.0848 108.723 31.7028 108.267 32.3432 107.863C34.2555 106.659 35.1363 103.902 33.6558 102.194L14.8214 80.4712C13.736 79.2194 13.871 77.3247 15.1228 76.2393L86.1448 14.661C87.3966 13.5757 89.2913 13.7106 90.3767 14.9624L151.955 85.9844C153.04 87.2362 152.905 89.1309 151.654 90.2163L129.931 109.051C128.223 110.531 125.466 109.65 124.262 107.738C123.858 107.098 123.401 106.48 122.89 105.89C117.463 99.631 107.99 98.9563 101.731 104.383C95.4715 109.81 94.7968 119.284 100.224 125.543C100.735 126.132 101.282 126.672 101.859 127.162C103.581 128.625 104.062 131.48 102.354 132.96L80.6316 151.795Z" fill="white"/>
  <path d="M28.9884 130.394L28.2329 131.049L28.9884 130.394ZM129.931 109.051L129.276 108.295L129.931 109.051ZM151.654 90.2163L152.309 90.9718L151.654 90.2163ZM51.7674 130.266L51.0053 129.619L51.7674 130.266ZM56.8098 130.425L75.6442 152.148L77.1553 150.838L58.3209 129.115L56.8098 130.425ZM50.8031 132.657C51.4311 132.112 52.0068 131.529 52.5295 130.914L51.0053 129.619C50.5481 130.157 50.0439 130.668 49.4929 131.146L50.8031 132.657ZM28.2329 131.049C34.0216 137.726 44.1266 138.445 50.8031 132.657L49.4929 131.146C43.651 136.211 34.8091 135.581 29.744 129.739L28.2329 131.049ZM29.8403 108.479C23.1638 114.268 22.4441 124.373 28.2329 131.049L29.744 129.739C24.6788 123.897 25.3085 115.055 31.1505 109.99L29.8403 108.479ZM31.8103 107.017C31.1271 107.447 30.4683 107.935 29.8403 108.479L31.1505 109.99C31.7014 109.512 32.2785 109.086 32.8761 108.709L31.8103 107.017ZM14.0659 81.1263L32.9003 102.849L34.4114 101.539L15.577 79.8162L14.0659 81.1263ZM85.4897 13.9055L14.4677 75.4838L15.7779 76.9949L86.7998 15.4166L85.4897 13.9055ZM152.711 85.3293L91.1322 14.3073L89.6211 15.6175L151.199 86.6395L152.711 85.3293ZM130.586 109.806L152.309 90.9718L150.998 89.4607L129.276 108.295L130.586 109.806ZM122.135 106.545C122.612 107.096 123.039 107.673 123.415 108.271L125.108 107.205C124.678 106.522 124.19 105.863 123.646 105.235L122.135 106.545ZM102.386 105.139C108.228 100.074 117.07 100.703 122.135 106.545L123.646 105.235C117.857 98.5587 107.752 97.839 101.076 103.628L102.386 105.139ZM100.979 124.888C95.9141 119.046 96.5438 110.204 102.386 105.139L101.076 103.628C94.3991 109.416 93.6794 119.521 99.4681 126.198L100.979 124.888ZM102.506 126.4C101.968 125.943 101.457 125.439 100.979 124.888L99.4681 126.198C100.013 126.826 100.596 127.402 101.211 127.924L102.506 126.4ZM81.2867 152.55L103.01 133.716L101.699 132.205L79.9766 151.039L81.2867 152.55ZM101.211 127.924C101.872 128.486 102.304 129.329 102.399 130.167C102.492 130.994 102.253 131.724 101.699 132.205L103.01 133.716C104.163 132.715 104.537 131.278 104.386 129.942C104.237 128.617 103.568 127.302 102.506 126.4L101.211 127.924ZM129.276 108.295C128.722 108.775 127.965 108.909 127.159 108.699C126.344 108.487 125.57 107.939 125.108 107.205L123.415 108.271C124.158 109.45 125.365 110.298 126.656 110.634C127.956 110.973 129.432 110.806 130.586 109.806L129.276 108.295ZM151.199 86.6395C151.923 87.474 151.833 88.7371 150.998 89.4607L152.309 90.9718C153.978 89.5247 154.158 86.9984 152.711 85.3293L151.199 86.6395ZM86.7998 15.4166C87.6344 14.693 88.8975 14.783 89.6211 15.6175L91.1322 14.3073C89.685 12.6382 87.1588 12.4583 85.4897 13.9055L86.7998 15.4166ZM15.577 79.8162C14.8534 78.9816 14.9433 77.7185 15.7779 76.9949L14.4677 75.4838C12.7986 76.931 12.6187 79.4572 14.0659 81.1263L15.577 79.8162ZM75.6442 152.148C77.0913 153.817 79.6176 153.997 81.2867 152.55L79.9766 151.039C79.142 151.763 77.8789 151.673 77.1553 150.838L75.6442 152.148ZM32.8761 108.709C34.0549 107.967 34.9035 106.76 35.2396 105.469C35.5781 104.168 35.4116 102.693 34.4114 101.539L32.9003 102.849C33.3805 103.403 33.5138 104.16 33.304 104.965C33.0917 105.781 32.5439 106.555 31.8103 107.017L32.8761 108.709ZM58.3209 129.115C57.3206 127.962 55.8833 127.588 54.5476 127.738C53.2221 127.888 51.9071 128.557 51.0053 129.619L52.5295 130.914C53.0907 130.253 53.9345 129.82 54.7721 129.726C55.5995 129.632 56.3296 129.872 56.8098 130.425L58.3209 129.115Z" fill="black" mask="url(#path-2-outside-1_1_480)"/>
</svg>