<svg width="48" height="48" viewBox="0 0 48 48" fill="none" xmlns="http://www.w3.org/2000/svg">
<rect width="48" height="48" rx="11.234" fill="url(#paint0_linear_1254_5357)"/>
<g filter="url(#filter0_ddd_1254_5357)">
<mask id="path-2-outside-1_1254_5357" maskUnits="userSpaceOnUse" x="22.3955" y="8.56396" width="15" height="11" fill="black">
<rect fill="white" x="22.3955" y="8.56396" width="15" height="11"/>
<path fill-rule="evenodd" clip-rule="evenodd" d="M32.8871 9.56396H27.924V12.0274H23.3955V16.2855H27.924V18.8201H32.8871V16.2855H36.8383V12.0274H32.8871V9.56396Z"/>
</mask>
<path fill-rule="evenodd" clip-rule="evenodd" d="M32.8871 9.56396H27.924V12.0274H23.3955V16.2855H27.924V18.8201H32.8871V16.2855H36.8383V12.0274H32.8871V9.56396Z" fill="white"/>
<path d="M27.924 9.56396V9.3332H27.6932V9.56396H27.924ZM32.8871 9.56396H33.1178V9.3332H32.8871V9.56396ZM27.924 12.0274V12.2582H28.1547V12.0274H27.924ZM23.3955 12.0274V11.7966H23.1647V12.0274H23.3955ZM23.3955 16.2855H23.1647V16.5163H23.3955V16.2855ZM27.924 16.2855H28.1547V16.0547H27.924V16.2855ZM27.924 18.8201H27.6932V19.0509H27.924V18.8201ZM32.8871 18.8201V19.0509H33.1178V18.8201H32.8871ZM32.8871 16.2855V16.0547H32.6563V16.2855H32.8871ZM36.8383 16.2855V16.5163H37.069V16.2855H36.8383ZM36.8383 12.0274H37.069V11.7966H36.8383V12.0274ZM32.8871 12.0274H32.6563V12.2582H32.8871V12.0274ZM27.924 9.79473H32.8871V9.3332H27.924V9.79473ZM28.1547 12.0274V9.56396H27.6932V12.0274H28.1547ZM23.3955 12.2582H27.924V11.7966H23.3955V12.2582ZM23.6263 16.2855V12.0274H23.1647V16.2855H23.6263ZM27.924 16.0547H23.3955V16.5163H27.924V16.0547ZM28.1547 18.8201V16.2855H27.6932V18.8201H28.1547ZM32.8871 18.5893H27.924V19.0509H32.8871V18.5893ZM32.6563 16.2855V18.8201H33.1178V16.2855H32.6563ZM36.8383 16.0547H32.8871V16.5163H36.8383V16.0547ZM36.6075 12.0274V16.2855H37.069V12.0274H36.6075ZM32.8871 12.2582H36.8383V11.7966H32.8871V12.2582ZM32.6563 9.56396V12.0274H33.1178V9.56396H32.6563Z" fill="#5472E3" mask="url(#path-2-outside-1_1254_5357)"/>
<path d="M16.5631 9.52475H16.5038L16.4693 9.573L15.2531 11.2731C14.2127 12.7274 12.5345 13.5903 10.7463 13.5903H10.631V13.7057V18.48V18.5954H10.7463C12.6692 18.5954 14.5542 18.0611 16.191 17.052L16.4477 16.8937V18.7302V18.8456H16.5631H21.7128H21.8281V18.7302V9.64014V9.52475H21.7128H16.5631Z" fill="#FF8585" stroke="#5472E3" stroke-width="0.230769"/>
<path d="M11.5326 24.7483V24.8632L11.6475 24.8636L25.8838 24.9232L11.4764 33.2392C11.1755 33.4129 10.9901 33.734 10.9901 34.0815V37.1857C10.9901 37.7229 11.4255 38.1583 11.9626 38.1583H33.2279C34.631 38.1583 35.902 37.3305 36.4693 36.0472L38.6555 31.1017L38.7022 30.9962L38.5967 30.9495L33.9382 28.8879L33.833 28.8413L33.7861 28.9463L31.9618 33.0318C31.8424 33.299 31.5771 33.4711 31.2845 33.4711H20.4228L35.5132 24.5104C35.8083 24.3352 35.9892 24.0174 35.9892 23.6742V20.4106V20.2953H35.8738H11.648H11.5326V20.4106V24.7483Z" fill="white"/>
<path d="M11.5326 24.7483V24.8632L11.6475 24.8636L25.8838 24.9232L11.4764 33.2392C11.1755 33.4129 10.9901 33.734 10.9901 34.0815V37.1857C10.9901 37.7229 11.4255 38.1583 11.9626 38.1583H33.2279C34.631 38.1583 35.902 37.3305 36.4693 36.0472L38.6555 31.1017L38.7022 30.9962L38.5967 30.9495L33.9382 28.8879L33.833 28.8413L33.7861 28.9463L31.9618 33.0318C31.8424 33.299 31.5771 33.4711 31.2845 33.4711H20.4228L35.5132 24.5104C35.8083 24.3352 35.9892 24.0174 35.9892 23.6742V20.4106V20.2953H35.8738H11.648H11.5326V20.4106V24.7483Z" fill="url(#paint1_linear_1254_5357)"/>
<path d="M11.5326 24.7483V24.8632L11.6475 24.8636L25.8838 24.9232L11.4764 33.2392C11.1755 33.4129 10.9901 33.734 10.9901 34.0815V37.1857C10.9901 37.7229 11.4255 38.1583 11.9626 38.1583H33.2279C34.631 38.1583 35.902 37.3305 36.4693 36.0472L38.6555 31.1017L38.7022 30.9962L38.5967 30.9495L33.9382 28.8879L33.833 28.8413L33.7861 28.9463L31.9618 33.0318C31.8424 33.299 31.5771 33.4711 31.2845 33.4711H20.4228L35.5132 24.5104C35.8083 24.3352 35.9892 24.0174 35.9892 23.6742V20.4106V20.2953H35.8738H11.648H11.5326V20.4106V24.7483Z" stroke="#5472E3" stroke-width="0.230769"/>
</g>
<defs>
<filter id="filter0_ddd_1254_5357" x="9.47114" y="9.33301" width="31.4722" height="33.1184" filterUnits="userSpaceOnUse" color-interpolation-filters="sRGB">
<feFlood flood-opacity="0" result="BackgroundImageFix"/>
<feColorMatrix in="SourceAlpha" type="matrix" values="0 0 0 0 0 0 0 0 0 0 0 0 0 0 0 0 0 0 127 0" result="hardAlpha"/>
<feOffset dy="1.04449"/>
<feGaussianBlur stdDeviation="0.522244"/>
<feColorMatrix type="matrix" values="0 0 0 0 0 0 0 0 0 0.054902 0 0 0 0 0.113725 0 0 0 0.09 0"/>
<feBlend mode="normal" in2="BackgroundImageFix" result="effect1_dropShadow_1254_5357"/>
<feColorMatrix in="SourceAlpha" type="matrix" values="0 0 0 0 0 0 0 0 0 0 0 0 0 0 0 0 0 0 127 0" result="hardAlpha"/>
<feOffset dy="2.08897"/>
<feGaussianBlur stdDeviation="0.522244"/>
<feColorMatrix type="matrix" values="0 0 0 0 0 0 0 0 0 0.054902 0 0 0 0 0.113725 0 0 0 0.05 0"/>
<feBlend mode="normal" in2="effect1_dropShadow_1254_5357" result="effect2_dropShadow_1254_5357"/>
<feColorMatrix in="SourceAlpha" type="matrix" values="0 0 0 0 0 0 0 0 0 0 0 0 0 0 0 0 0 0 127 0" result="hardAlpha"/>
<feOffset dx="1.04449" dy="3.13346"/>
<feGaussianBlur stdDeviation="0.522244"/>
<feColorMatrix type="matrix" values="0 0 0 0 0 0 0 0 0 0.054902 0 0 0 0 0.113725 0 0 0 0.01 0"/>
<feBlend mode="normal" in2="effect2_dropShadow_1254_5357" result="effect3_dropShadow_1254_5357"/>
<feBlend mode="normal" in="SourceGraphic" in2="effect3_dropShadow_1254_5357" result="shape"/>
</filter>
<linearGradient id="paint0_linear_1254_5357" x1="24" y1="0" x2="24" y2="48" gradientUnits="userSpaceOnUse">
<stop stop-color="#6480E6"/>
<stop offset="1" stop-color="#3B5BD2"/>
</linearGradient>
<linearGradient id="paint1_linear_1254_5357" x1="24.8277" y1="20.4106" x2="24.8277" y2="38.0429" gradientUnits="userSpaceOnUse">
<stop stop-color="#5472E2" stop-opacity="0"/>
<stop offset="1" stop-color="#5472E2" stop-opacity="0.15"/>
</linearGradient>
</defs>
</svg>
